<?xml version="1.0" encoding="UTF-8" standalone="no"?>
<svg
   width="408.38324"
   height="360.6579"
   viewBox="0 0 408.38324 360.6579"
   version="1.1"
   id="svg1"
   sodipodi:docname="torchft_logo_vertical.svg"
   inkscape:version="1.3.2 (091e20ef0f, 2023-11-25)"
   xmlns:inkscape="http://www.inkscape.org/namespaces/inkscape"
   xmlns:sodipodi="http://sodipodi.sourceforge.net/DTD/sodipodi-0.dtd"
   xmlns="http://www.w3.org/2000/svg"
   xmlns:svg="http://www.w3.org/2000/svg">
  <defs
     id="defs1">
    <rect
       x="107.06805"
       y="0.87101281"
       width="642.52264"
       height="248.57541"
       id="rect1" />
  </defs>
  <sodipodi:namedview
     id="namedview1"
     pagecolor="#ffffff"
     bordercolor="#000000"
     borderopacity="0.25"
     inkscape:showpageshadow="2"
     inkscape:pageopacity="0.0"
     inkscape:pagecheckerboard="0"
     inkscape:deskcolor="#d1d1d1"
     inkscape:zoom="0.86350502"
     inkscape:cx="204.39951"
     inkscape:cy="283.72736"
     inkscape:window-width="1920"
     inkscape:window-height="1176"
     inkscape:window-x="0"
     inkscape:window-y="0"
     inkscape:window-maximized="0"
     inkscape:current-layer="svg1" />
  <!-- Generated by Pixelmator Pro 1.5.5 -->
  <g
     id="g2"
     transform="matrix(2.5908068,0,0,2.5908068,109.23855,-4.1452909)">
    <path
       id="Path"
       d="M 62.5,27.4 55.9,34 c 10.8,10.8 10.8,28.2 0,38.8 C 45.1,83.6 27.7,83.6 17.1,72.8 6.3,62 6.3,44.6 17.1,34 L 34.2,16.9 36.6,14.5 V 1.6 L 10.8,27.4 c -14.4,14.4 -14.4,37.6 0,52 14.4,14.4 37.6,14.4 51.7,0 14.4,-14.5 14.4,-37.6 0,-52 z"
       fill="#ee4c2c"
       fill-opacity="1"
       stroke="none" />
    <path
       id="Path-1"
       d="m 54.4,21 c 0,2.651 -2.149,4.8 -4.8,4.8 -2.651,0 -4.8,-2.149 -4.8,-4.8 0,-2.651 2.149,-4.8 4.8,-4.8 2.651,0 4.8,2.149 4.8,4.8 z"
       fill="#ee4c2c"
       fill-opacity="1"
       stroke="none" />
  </g>
  <g
     id="g1"
     transform="translate(-213.4,269.0579)">
    <path
       id="Path-4"
       d="m 250.3,16.8 v 73.3 h -8.4 V 16.8 H 213.4 V 9 h 65.2 v 7.8 c -0.1,0 -28.3,0 -28.3,0 z"
       fill="#000000"
       fill-opacity="1"
       stroke="none" />
    <path
       id="Path-5"
       d="m 302.3,91.6 c -16.5,0 -28.5,-12.3 -28.5,-31.2 0,-18.9 12.6,-31.5 29.4,-31.5 16.8,0 28.5,12.3 28.5,31.2 -0.3,18.9 -12.9,31.5 -29.4,31.5 z m 0.3,-55.2 c -12.6,0 -20.7,9.9 -20.7,24 0,14.4 8.4,24.3 21,24.3 12.6,0 20.7,-9.9 20.7,-24 0,-14.7 -8.4,-24.3 -21,-24.3 z"
       fill="#000000"
       fill-opacity="1"
       stroke="none" />
    <path
       id="Path-6"
       d="m 351.8,90.1 h -8.1 V 30.6 l 8.1,-1.8 v 12.6 c 3.9,-7.5 9.6,-12.6 17.4,-12.6 3.9,0 7.5,1.2 10.5,2.7 l -2.1,7.5 c -2.7,-1.5 -5.7,-2.7 -9,-2.7 -6.3,0 -12,4.8 -16.8,15.3 z"
       fill="#000000"
       fill-opacity="1"
       stroke="none" />
    <path
       id="Path-7"
       d="m 411.3,91.6 c -18,0 -29.1,-12.9 -29.1,-31.2 0,-18.6 12.3,-31.5 29.1,-31.5 7.2,0 13.5,1.8 18.6,5.1 l -2.1,7.2 c -4.5,-3 -10.2,-4.8 -16.5,-4.8 -12.9,0 -20.7,9.6 -20.7,23.7 0,14.4 8.4,24 21,24 6,0 12,-1.8 16.5,-4.8 l 1.8,7.5 c -5.4,3 -11.7,4.8 -18.6,4.8 z"
       fill="#000000"
       fill-opacity="1"
       stroke="none" />
    <path
       id="Path-8"
       d="M 479.5,90.1 V 51.6 c 0,-10.5 -4.2,-15 -12.6,-15 -6.9,0 -13.5,3.6 -18.3,8.4 v 45.1 h -8.1 V 2.7 l 8.1,-1.8 v 37.6 c 6.3,-6.3 14.1,-9.3 20.7,-9.3 11.4,0 18.6,7.5 18.6,20.4 v 40.6 h -8.4 z"
       fill="#000000"
       fill-opacity="1"
       stroke="none" />
  </g>
  <path
     style="font-size:129.333px;font-family:FreightSansLFPro;-inkscape-font-specification:FreightSansLFPro;letter-spacing:0px;white-space:pre;fill:#ee4c2c"
     d="m 117.415,118.54797 h 8.27731 V 83.240067 h 32.59191 V 75.609421 H 125.69231 V 45.474833 h 39.31723 V 37.714854 H 117.415 Z M 238.47072,45.474833 v -7.759979 h -65.18383 v 7.759979 h 28.45326 v 73.073137 h 8.27731 V 45.474833 Z"
     id="text1"
     transform="translate(169.91253,240.01305)"
     aria-label="FT" />
</svg>
