<?xml version="1.0" encoding="UTF-8" standalone="no"?>
<svg
   width="270"
   height="90.699997"
   viewBox="0 0 270 90.699997"
   version="1.1"
   id="svg1"
   xmlns="http://www.w3.org/2000/svg"
   xmlns:svg="http://www.w3.org/2000/svg">
  <defs
     id="defs1" />
  <!-- Generated by Pixelmator Pro 1.5.5 -->
  <path
     id="Path"
     d="m 42.90522,36.457453 -3.26969,3.269683 c 5.35039,5.35039 5.35039,13.970464 0,19.221773 -5.35039,5.35039 -13.97046,5.35039 -19.22177,0 -5.35039,-5.350391 -5.35039,-13.970464 0,-19.221773 l 8.47145,-8.471451 1.18898,-1.188976 V 23.675965 L 17.2927,36.457453 c -7.13385,7.133854 -7.13385,18.627285 0,25.761139 7.13385,7.133854 18.62728,7.133854 25.61252,0 7.13385,-7.183395 7.13385,-18.627285 0,-25.761139 z"
     fill="#ee4c2c"
     fill-opacity="1"
     stroke="none"
     style="stroke-width:0.495407" />
  <path
     id="Path-1"
     d="m 38.89242,33.286851 c 0,1.313323 -1.06463,2.377952 -2.37795,2.377952 -1.31332,0 -2.37795,-1.064629 -2.37795,-2.377952 0,-1.313322 1.06463,-2.377951 2.37795,-2.377951 1.31332,0 2.37795,1.064629 2.37795,2.377951 z"
     fill="#ee4c2c"
     fill-opacity="1"
     stroke="none"
     style="stroke-width:0.495407" />
  <g
     id="g1"
     transform="matrix(0.49540651,0,0,0.49540651,-48.79453,22.437449)"
     style="fill:#ffffff">
    <path
       id="Path-4"
       d="m 250.3,16.8 v 73.3 h -8.4 V 16.8 H 213.4 V 9 h 65.2 v 7.8 c -0.1,0 -28.3,0 -28.3,0 z"
       fill="#000000"
       fill-opacity="1"
       stroke="none"
       style="fill:#ffffff" />
    <path
       id="Path-5"
       d="m 302.3,91.6 c -16.5,0 -28.5,-12.3 -28.5,-31.2 0,-18.9 12.6,-31.5 29.4,-31.5 16.8,0 28.5,12.3 28.5,31.2 -0.3,18.9 -12.9,31.5 -29.4,31.5 z m 0.3,-55.2 c -12.6,0 -20.7,9.9 -20.7,24 0,14.4 8.4,24.3 21,24.3 12.6,0 20.7,-9.9 20.7,-24 0,-14.7 -8.4,-24.3 -21,-24.3 z"
       fill="#000000"
       fill-opacity="1"
       stroke="none"
       style="fill:#ffffff" />
    <path
       id="Path-6"
       d="m 351.8,90.1 h -8.1 V 30.6 l 8.1,-1.8 v 12.6 c 3.9,-7.5 9.6,-12.6 17.4,-12.6 3.9,0 7.5,1.2 10.5,2.7 l -2.1,7.5 c -2.7,-1.5 -5.7,-2.7 -9,-2.7 -6.3,0 -12,4.8 -16.8,15.3 z"
       fill="#000000"
       fill-opacity="1"
       stroke="none"
       style="fill:#ffffff" />
    <path
       id="Path-7"
       d="m 411.3,91.6 c -18,0 -29.1,-12.9 -29.1,-31.2 0,-18.6 12.3,-31.5 29.1,-31.5 7.2,0 13.5,1.8 18.6,5.1 l -2.1,7.2 c -4.5,-3 -10.2,-4.8 -16.5,-4.8 -12.9,0 -20.7,9.6 -20.7,23.7 0,14.4 8.4,24 21,24 6,0 12,-1.8 16.5,-4.8 l 1.8,7.5 c -5.4,3 -11.7,4.8 -18.6,4.8 z"
       fill="#000000"
       fill-opacity="1"
       stroke="none"
       style="fill:#ffffff" />
    <path
       id="Path-8"
       d="M 479.5,90.1 V 51.6 c 0,-10.5 -4.2,-15 -12.6,-15 -6.9,0 -13.5,3.6 -18.3,8.4 v 45.1 h -8.1 V 2.7 l 8.1,-1.8 v 37.6 c 6.3,-6.3 14.1,-9.3 20.7,-9.3 11.4,0 18.6,7.5 18.6,20.4 v 40.6 h -8.4 z"
       fill="#000000"
       fill-opacity="1"
       stroke="none"
       style="fill:#ffffff" />
  </g>
  <path
     style="font-size:129.333px;font-family:FreightSansLFPro;-inkscape-font-specification:FreightSansLFPro;letter-spacing:0px;white-space:pre;fill:#ee4c2c;stroke-width:0.495407"
     d="m 199.26915,66.777879 h 4.10063 V 49.286114 h 16.14625 V 45.505842 H 203.36978 V 30.576971 h 19.47801 v -3.844344 h -23.57864 z m 59.97179,-36.200908 v -3.844344 h -32.29249 v 3.844344 h 14.09593 v 36.200908 h 4.10063 V 30.576971 Z"
     id="text1"
     aria-label="FT" />
</svg>
